<?xml version="1.0" encoding="iso-8859-1"?>
<!-- Generator: Adobe Illustrator 24.3.0, SVG Export Plug-In . SVG Version: 6.00 Build 0)  -->
<svg version="1.1" id="Layer_1" xmlns="http://www.w3.org/2000/svg" xmlns:xlink="http://www.w3.org/1999/xlink" x="0px" y="0px"
	 viewBox="0 0 100 100" style="enable-background:new 0 0 100 100;" xml:space="preserve">
<g>
	<path style="fill:#FEFDEF;" d="M69.925,81h-40c-6.075,0-11-4.925-11-11V30c0-6.075,4.925-11,11-11h40c6.075,0,11,4.925,11,11v40
		C80.925,76.075,76,81,69.925,81z"/>
</g>
<g>
	<path style="fill:#FBB822;" d="M81.925,36h-63v-6c0-6.627,5.373-12,12-12h39c6.627,0,12,5.373,12,12V36z"/>
</g>
<g>
	<circle style="fill:#1F212B;" cx="23.925" cy="39" r="1"/>
</g>
<g>
	<circle style="fill:#1F212B;" cx="27.925" cy="39" r="1"/>
</g>
<g>
	<circle style="fill:#1F212B;" cx="31.925" cy="39" r="1"/>
</g>
<g>
	<circle style="fill:#1F212B;" cx="35.925" cy="39" r="1"/>
</g>
<g>
	<circle style="fill:#1F212B;" cx="39.925" cy="39" r="1"/>
</g>
<g>
	<circle style="fill:#1F212B;" cx="43.925" cy="39" r="1"/>
</g>
<g>
	<circle style="fill:#1F212B;" cx="47.925" cy="39" r="1"/>
</g>
<g>
	<circle style="fill:#1F212B;" cx="51.925" cy="39" r="1"/>
</g>
<g>
	<circle style="fill:#1F212B;" cx="55.925" cy="39" r="1"/>
</g>
<g>
	<circle style="fill:#1F212B;" cx="59.925" cy="39" r="1"/>
</g>
<g>
	<circle style="fill:#1F212B;" cx="63.925" cy="39" r="1"/>
</g>
<g>
	<circle style="fill:#1F212B;" cx="67.925" cy="39" r="1"/>
</g>
<g>
	<circle style="fill:#1F212B;" cx="71.925" cy="39" r="1"/>
</g>
<g>
	<circle style="fill:#1F212B;" cx="75.925" cy="39" r="1"/>
</g>
<path style="fill:#1F212B;" d="M70,18H30c-6.617,0-12,5.383-12,12v40c0,6.617,5.383,12,12,12h40c6.617,0,12-5.383,12-12V30
	C82,23.383,76.617,18,70,18z M70,80H30c-5.514,0-10-4.486-10-10v-4h6.425c0.276,0,0.5-0.224,0.5-0.5s-0.224-0.5-0.5-0.5H20V52
	h40.425c0.276,0,0.5-0.224,0.5-0.5s-0.224-0.5-0.5-0.5H20V36h6.425c0.276,0,0.5-0.224,0.5-0.5s-0.224-0.5-0.5-0.5H20v-5
	c0-5.514,4.486-10,10-10h40c5.514,0,10,4.486,10,10v5H29.425c-0.276,0-0.5,0.224-0.5,0.5s0.224,0.5,0.5,0.5H80v15H63.425
	c-0.276,0-0.5,0.224-0.5,0.5s0.224,0.5,0.5,0.5H80v13H29.425c-0.276,0-0.5,0.224-0.5,0.5s0.224,0.5,0.5,0.5H80v4
	C80,75.514,75.513,80,70,80z"/>
</svg>